# xmcd
#
# Track frame offsets:
#	150
#	15782
#	29110
#	43335
#	58017
#	70387
#	84055
#	98317
#	112650
#	118200
#	123170
#	134402
#	147395
#	161922
#	176730
#	192102
#	204275
#	218917
#
# Disc length: 3115 seconds
#
# Revision: 0
# Processed by: cddbd v1.5.2PL0 Copyright (c) Steve Scherf et al.
# Submitted via: EasyCDDAExtractor 16.0.6.1
#
DISCID=f90c2912
DTITLE=Συλλογικός δίσκος - Τραγούδια και σκοποί διάφορες περιοχές Ελλάδας 4
DYEAR=1996
DGENRE=Παραδοσιακή
TTITLE0=Παπαθανασίου Λάμπρος - Παναγιούλα [καγκέλι Ρούμελης]
TTITLE1=Χορωδία - Σε καινούργια βάρκα μπήκα [συρτό Προποντίδος]
TTITLE2=Σεμεωνίδης Αλέκος - Τραγούδι του γάμου [Κύπρου]
TTITLE3=Αηδονίδης Χρόνης - Μάνα και γιος μαλώνανε [καθιστό Θράκης]
TTITLE4=Σαμίου Δόμνα - Στου Μαγιού τις μυρωδιές [κρητικός πεντοζάλης]
TTITLE5=Άνευ ερμηνευτού - Μοράβα [συγκαθιστό χασιώτικο Θεσσαλίας]
TTITLE6=Χριστοδουλάκη-Παπαστεφάνου Αμαλία - Τζιβαέρι [αργός σκοπός Πόντου]
TTITLE7=Μπαϊρακτάρη-Κουταλακίδου Ελένη - Σο έναν τ' αναστέναγμά μ' [χορός ομάλ
TTITLE7=Πόντου]
TTITLE8=Κονιτοπούλου-Λεγάκη Ειρήνη - Θάλασσ' απ' όλα τα νερά [κυκλαδίτικο]
TTITLE9=Άνευ ερμηνευτού - Μπάλος
TTITLE10=Άνευ ερμηνευτού - Της τριανταφυλλιάς τα φύλλα [καλαματιανός Μυκόνου]
TTITLE11=Καρζή Αμαλία - Θέλουν ν' ανθίσουν τα κλαριά [κλέφτικο Πελοποννήσου]
TTITLE12=Χριστοδουλάκη-Παπαστεφάνου Αμαλία - Ξενητεμένο μου πουλί [ίσιος χορός
TTITLE12=]
TTITLE13=Παπαθανασίου Λάμπρος - Καλότυχα πού 'ναι τα βουνά [κλέφτικο Ρούμελης]
TTITLE14=Μπαϊρακτάρη-Κουταλακίδου Ελένη - Περιμένω σε [καθιστό του γάμου-Πόντο
TTITLE14=υ]
TTITLE15=Χριστοδουλάκη-Παπαστεφάνου Άννα - Μικρό μου Καστελόριζο [σκοπός Καστε
TTITLE15=λόριζου]
TTITLE16=Παπαθανασίου Λάμπρος - Σκάψτε το μνήμα μου βαθειά [τσάμικο στεριανό]
TTITLE17=Καρζή Αμαλία - Γαργαλιανιώτισσα [καλαματιανό Πελοποννήσου]
EXTD=
EXTT0=
EXTT1=
EXTT2=
EXTT3=
EXTT4=
EXTT5=
EXTT6=
EXTT7=
EXTT8=
EXTT9=
EXTT10=
EXTT11=
EXTT12=
EXTT13=
EXTT14=
EXTT15=
EXTT16=
EXTT17=
PLAYORDER=
